<svg width="64" height="64" viewBox="0 0 64 64" fill="none" xmlns="http://www.w3.org/2000/svg">
<circle cx="32" cy="32" r="32" fill="#0077FF" fill-opacity="0.05"/>
<g clip-path="url(#clip0)">
<path d="M31.4896 32.6124C31.2223 32.8794 31.2223 33.3131 31.4896 33.5809C31.7569 33.8487 32.1895 33.8487 32.4562 33.5809C32.7235 33.3131 32.7235 32.8794 32.4562 32.6124C32.1895 32.3445 31.7569 32.3445 31.4896 32.6124Z" fill="#1157A7"/>
<path d="M42.3593 17.0389C41.1862 17.9488 40.8666 18.4178 36.7063 22.5432L34.2122 22.1363L35.3567 20.9895C36.1583 20.1863 36.1586 18.8868 35.3567 18.0837C34.5554 17.2807 33.2576 17.2805 32.4562 18.0837L29.2236 21.3226L17.9181 19.4784C17.1875 19.3596 16.4401 19.6017 15.9173 20.1256C14.9119 21.1329 15.0483 22.7995 16.1952 23.6311L27.4615 31.8058L25.3522 33.9195C24.6293 34.6437 23.8686 35.6398 23.0867 36.8837L17.8327 35.3356C17.0572 35.1074 16.2198 35.3212 15.647 35.894C14.6718 36.8711 14.8192 38.4938 15.952 39.2799L20.2591 42.2674C19.5093 43.9254 19.0535 45.1243 19.0324 45.1797C18.9368 45.4317 18.998 45.7166 19.1881 45.9071C19.3793 46.0987 19.6639 46.1584 19.9141 46.0631C19.9694 46.0422 21.166 45.5853 22.8208 44.834L25.8027 49.1498C26.5885 50.2867 28.2081 50.4306 29.1822 49.4546C29.7536 48.8812 29.967 48.0422 29.739 47.2652L28.1942 42.0011C29.4364 41.2172 30.43 40.455 31.1526 39.7312L33.2621 37.6176L41.4207 48.9058C42.2519 50.0569 43.9153 50.1906 44.9196 49.1844C45.4421 48.6608 45.6838 47.9114 45.5655 47.1791L43.7249 35.8523L46.9573 32.6136C47.7589 31.8104 47.7589 30.5101 46.9573 29.7072C46.1559 28.904 44.8589 28.904 44.0573 29.7072L42.9126 30.8539L42.5067 28.355C46.6283 24.1822 47.0889 23.8695 47.9976 22.6941C47.9987 22.6928 48 22.6912 48.0011 22.6896C50.1095 19.9517 50.603 17.1866 49.2281 15.8084C47.8529 14.4313 45.0929 14.9252 42.3593 17.0389ZM33.4229 19.0525C33.6899 18.7846 34.1228 18.7846 34.3901 19.0525C34.6574 19.3203 34.6571 19.7529 34.3901 20.0207L32.5492 21.865L30.8864 21.5937L33.4229 19.0525ZM16.9969 22.5213C16.529 22.1823 16.4753 21.5035 16.8842 21.0941C17.097 20.8806 17.4019 20.7819 17.6989 20.8303L35.5151 23.7368L28.4407 30.8247L16.9969 22.5213ZM16.6137 36.8631C16.8321 36.6445 17.1515 36.5626 17.4471 36.6499L22.3612 38.0978C21.8587 38.9797 21.3516 39.9538 20.8458 41.0083L16.7304 38.1538C16.2986 37.8541 16.242 37.2353 16.6137 36.8631ZM28.215 48.4866C27.8465 48.8558 27.2281 48.806 26.9266 48.3699L24.0777 44.2462C25.1308 43.7389 26.1033 43.2305 26.9824 42.7281L28.4273 47.6516C28.5144 47.948 28.4329 48.268 28.215 48.4866ZM45.0242 30.6757C45.2913 30.4081 45.7233 30.4079 45.9906 30.6757C46.2579 30.9435 46.2576 31.3769 45.9906 31.6448L43.4541 34.186L43.1836 32.5199L45.0242 30.6757ZM44.2159 47.3987C44.2643 47.697 44.1657 48.0026 43.9529 48.2158C43.5462 48.6233 42.8682 48.5735 42.5283 48.1027L34.2411 36.6367L41.3155 29.5485L44.2159 47.3987ZM30.186 38.7624C29.4337 39.5164 28.3328 40.3303 26.9138 41.1819C25.0691 42.2888 22.8862 43.337 20.9171 44.175C21.7761 42.1486 22.8421 39.926 23.9706 38.0566C24.796 36.6884 25.5861 35.6222 26.3191 34.888C43.0175 18.1971 42.0282 19.0581 43.0415 18.2461C44.1657 18.1741 45.1553 18.5085 45.8443 19.1988C46.5332 19.8891 46.8673 20.8809 46.7954 22.007C45.9831 23.0248 46.8323 22.0432 30.186 38.7624ZM47.9653 20.2072C47.7469 19.4522 47.3589 18.779 46.8112 18.2303C46.2635 17.6818 45.5917 17.2928 44.8384 17.0739C45.8277 16.5712 47.4937 16.0083 48.2614 16.7769C48.8676 17.3845 48.717 18.722 47.9653 20.2072Z" fill="#1157A7"/>
<path d="M35.3567 28.7377L33.4234 30.6745C33.1564 30.9421 33.1564 31.3758 33.4234 31.6433C33.6904 31.9109 34.123 31.9106 34.3903 31.6433L36.3234 29.7062C36.5904 29.439 36.5904 29.0053 36.3234 28.7377C36.0563 28.4702 35.6237 28.4702 35.3567 28.7377Z" fill="#1157A7"/>
<path d="M39.2238 24.863L37.2897 26.8006C37.023 27.0682 37.023 27.5019 37.2897 27.7694C37.557 28.0367 37.9896 28.0367 38.2566 27.7694L40.1905 25.8318C40.4575 25.5643 40.4575 25.1306 40.1905 24.863C39.9234 24.5955 39.4909 24.5955 39.2238 24.863Z" fill="#1157A7"/>
</g>
<defs>
<clipPath id="clip0">
<rect width="35" height="35" fill="white" transform="translate(15 15)"/>
</clipPath>
</defs>
</svg>
